<?xml version="1.0" encoding="utf-8"?>
<svg version="1.1" id="Ebene_1" xmlns="http://www.w3.org/2000/svg" xmlns:xlink="http://www.w3.org/1999/xlink" x="0px" y="0px"
	 viewBox="0 0 76 76" style="enable-background:new 0 0 76 76;" xml:space="preserve">
<style type="text/css">
	.st0{fill:#10384F;}
	.st1{fill:#89D329;}
	.st2{fill:#00BCFF;}
</style>
<g id="Bayer_Cross">
	<path class="st0" d="M35.7,11.3h4.4c0.5,0,0.9-0.4,0.9-0.9c0-0.5-0.4-0.9-0.9-0.9h-4.4V11.3z M35.7,15.5h4.5c0.5,0,1-0.5,1-1
		s-0.5-1-1-1h-4.5C35.7,13.5,35.7,15.5,35.7,15.5z M42.8,12.3c0.6,0.6,1,1.4,1,2.3c0,1.8-1.4,3.2-3.2,3.2h-7.3V7.3h7.2
		c1.7,0,3.1,1.4,3.1,3.1C43.5,11.1,43.2,11.8,42.8,12.3z M44.5,30.3h-2.7l-0.8-1.8h-5.9l-0.8,1.8h-2.7l5.3-10.5h2.4L44.5,30.3z
		 M38,22.5l-1.8,3.8h3.7L38,22.5z M41.6,32.6h3l-5.3,6.8v3.7h-2.5v-3.7l-5.3-6.8h3l3.6,4.8L41.6,32.6z M55.5,32.6v2.3h-7v1.8h6.8
		v2.3h-6.8v2h7v2.3H46V32.6H55.5z M63.2,39.1h-1.9v4h-2.5V32.6h6.4c1.8,0,3.2,1.5,3.2,3.3c0,1.5-1,2.7-2.3,3.1l3.1,4.1h-3L63.2,39.1
		z M65,34.8h-3.6v2H65c0.6,0,1-0.5,1-1S65.5,34.8,65,34.8z M32.6,43.1h-2.7l-0.8-1.8h-5.9l-0.8,1.8h-2.7l5.3-10.5h2.4L32.6,43.1z
		 M26.1,35.3l-1.8,3.8H28L26.1,35.3z M10.2,36.6h4.4c0.5,0,0.9-0.4,0.9-0.9c0-0.5-0.4-0.9-0.9-0.9h-4.4V36.6z M10.2,40.8h4.5
		c0.5,0,1-0.5,1-1s-0.5-1-1-1h-4.5V40.8z M17.3,37.6c0.6,0.6,1,1.4,1,2.3c0,1.8-1.4,3.2-3.2,3.2H7.7V32.6h7.2c1.7,0,3.1,1.4,3.1,3.1
		C18,36.4,17.7,37.1,17.3,37.6z M42.8,45.3v2.2h-7v1.8h6.8v2.3h-6.8v2h7v2.3h-9.5V45.3H42.8z M41,61.6c0-0.6-0.4-1-1-1h-4.3v2H40
		C40.5,62.6,41,62.2,41,61.6z M33.2,68.9V58.3h7c1.8,0,3.2,1.5,3.2,3.3c0,1.4-0.8,2.5-2,3l3.2,4.2h-3l-3-4h-2.9v4L33.2,68.9
		L33.2,68.9z"/>
	<path class="st1" d="M75.9,35.7C74.7,15.8,58.2,0,38,0C17.8,0,1.3,15.8,0.1,35.7c0.1,0.8,0.1,1.6,0.2,2.4
		c0.8,6.6,3.3,12.7,7.1,17.8c6.9,9.4,18,15.5,30.6,15.5c-17.6,0-32-13.7-33.2-30.9c0-0.8-0.1-1.6-0.1-2.3s0-1.6,0.1-2.3
		C6,18.4,20.4,4.7,38,4.7c12.6,0,23.7,6.1,30.6,15.5c3.8,5.1,6.3,11.2,7.1,17.8c0.1,0.8,0.2,1.5,0.2,2.3c0-0.8,0.1-1.6,0.1-2.4
		S76,36.4,75.9,35.7"/>
	<path class="st2" d="M0.1,40.4C1.3,60.2,17.8,76,38,76s36.7-15.8,37.9-35.7c-0.1-0.8-0.1-1.6-0.2-2.4c-0.8-6.6-3.3-12.7-7.1-17.8
		C61.7,10.8,50.6,4.7,38,4.7c17.6,0,32,13.7,33.2,30.9c0.1,0.8,0.1,1.6,0.1,2.3s0,1.6-0.1,2.3C70,57.6,55.6,71.3,38,71.3
		c-12.5,0-23.7-6.1-30.6-15.5C3.6,50.7,1.1,44.6,0.3,38c-0.1-0.8-0.2-1.5-0.2-2.3C0,36.4,0,37.2,0,38S0,39.6,0.1,40.4"/>
</g>
</svg>
