<svg id="Layer_1" data-name="Layer 1" xmlns="http://www.w3.org/2000/svg" viewBox="0 0 387 135.89"><defs><style>.cls-1,.cls-2{fill:#fff;}.cls-2,.cls-3,.cls-4,.cls-5{fill-rule:evenodd;}.cls-3,.cls-5{fill:#d30f4b;}.cls-4{fill:#ff3162;}.cls-5{opacity:0.5;}.cls-6{fill:#10384f;}</style></defs><g id="COLID_Logo_white"><g id="Wordmark"><path class="cls-1" d="M398.07,280.15H382V228.24h12.85a28.93,28.93,0,0,1,11.19,1.9,17.56,17.56,0,0,1,7.28,5.48,22.38,22.38,0,0,1,4,8.59,48,48,0,0,1,1.21,11.25A34.14,34.14,0,0,1,416.78,267a21.26,21.26,0,0,1-4.59,7.67,16.82,16.82,0,0,1-6.54,4.21A23.24,23.24,0,0,1,398.07,280.15Zm1.52,15.42A39.41,39.41,0,0,0,416,292.38a32.69,32.69,0,0,0,11.66-8.75,36.74,36.74,0,0,0,7-13.21A57.5,57.5,0,0,0,437,253.73a51.61,51.61,0,0,0-2.83-18A35.37,35.37,0,0,0,426.32,223a32.23,32.23,0,0,0-11.9-7.65,42.27,42.27,0,0,0-14.83-2.55H364v82.75Zm-45.85,0V212.82h-18v82.75Zm-28.27,0v-15.3H285.1V212.82H266.88v82.75ZM218.83,282.2a21.1,21.1,0,0,1-10.38-2.37,19.78,19.78,0,0,1-6.91-6.31,27.37,27.37,0,0,1-3.86-8.85,42.11,42.11,0,0,1-1.21-10.13A45.16,45.16,0,0,1,197.68,244a27.92,27.92,0,0,1,3.86-9.09,19.76,19.76,0,0,1,6.91-6.37,23.89,23.89,0,0,1,20.75,0,19.67,19.67,0,0,1,6.91,6.37A27.71,27.71,0,0,1,240,244a45.16,45.16,0,0,1,1.21,10.53A42.11,42.11,0,0,1,240,264.67a27.16,27.16,0,0,1-3.86,8.85,19.69,19.69,0,0,1-6.91,6.31A21.06,21.06,0,0,1,218.83,282.2Zm.25,14.91a42.2,42.2,0,0,0,17.12-3.3,36.59,36.59,0,0,0,12.73-9.07,40.13,40.13,0,0,0,8-13.58,49.84,49.84,0,0,0,2.78-16.82,51.51,51.51,0,0,0-2.78-17.16,41.23,41.23,0,0,0-8-13.82,36.5,36.5,0,0,0-12.73-9.24,45.14,45.14,0,0,0-34.18,0,36.42,36.42,0,0,0-12.78,9.24,41.23,41.23,0,0,0-8,13.82,51.51,51.51,0,0,0-2.78,17.16,49.84,49.84,0,0,0,2.78,16.82,40.13,40.13,0,0,0,8,13.58A36.51,36.51,0,0,0,202,293.81,42.31,42.31,0,0,0,219.08,297.11Z" transform="translate(-50 -181.58)"/></g><g id="Signet"><path class="cls-2" d="M128.31,295.47a45.95,45.95,0,1,1,31-79.74l15.51-15.56a67.45,67.45,0,0,0-53.36-18.24c-11.84-.33-25.63,2.68-38.5,8.9-17.65,8.54-29.69,21.87-33,34.39A76.41,76.41,0,0,1,69.49,205.3c-11,11-16.9,24.45-16.77,36.37,3.42-11.75,10.94-23.68,22-33.68A67.81,67.81,0,0,0,167,305.26l-15.87-15.92A45.4,45.4,0,0,1,128.31,295.47Z" transform="translate(-50 -181.58)"/><path class="cls-3" d="M155.67,307.12c-16.4-16.39-19.38-56.83-19.38-56.83s46.78-3.36,59.34,9.21C210.57,274.43,215,316.33,215,316.33S167.77,319.23,155.67,307.12Z" transform="translate(-50 -181.58)"/><path class="cls-4" d="M121.76,278.31c-16.54-16.53-19.38-56.84-19.38-56.84s48-2.84,59.34,9.21C178,248,181.09,287.52,181.09,287.52S133.72,290.28,121.76,278.31Z" transform="translate(-50 -181.58)"/><path class="cls-5" d="M173.52,251.57q-14.67-2.17-37.23-1.28,3,22,7.57,35.94,14.67,2.17,37.23,1.29-2.93-21.52-7.38-35.37Z" transform="translate(-50 -181.58)"/><ellipse class="cls-1" cx="141.52" cy="254.66" rx="18.13" ry="18.16" transform="translate(-194.49 17.63) rotate(-49.97)"/><ellipse class="cls-6" cx="141.52" cy="254.66" rx="14.33" ry="14.36" transform="translate(-194.53 17.83) rotate(-50.01)"/><ellipse class="cls-1" cx="147.61" cy="252.11" rx="3.8" ry="3.81" transform="translate(-190.4 21.58) rotate(-50.01)"/></g></g></svg>