<svg id="Layer_1" data-name="Layer 1" xmlns="http://www.w3.org/2000/svg" viewBox="0 0 405 43.24"><defs><style>.cls-1{fill:#10384f;}</style></defs><path class="cls-1" d="M62.88,430.18a18,18,0,0,1,6.21,1.06,13.56,13.56,0,0,1,5,3.19,14.75,14.75,0,0,1,3.28,5.32,21.44,21.44,0,0,1,1.19,7.49,23.75,23.75,0,0,1-1,7,15.27,15.27,0,0,1-2.92,5.5,13.63,13.63,0,0,1-4.88,3.65,16.48,16.48,0,0,1-6.89,1.33H48v-34.5Zm-.53,28.12a9.58,9.58,0,0,0,3.19-.53A6.93,6.93,0,0,0,68.29,456a8.84,8.84,0,0,0,1.94-3.22A14.21,14.21,0,0,0,71,448a20,20,0,0,0-.51-4.71,9.33,9.33,0,0,0-1.66-3.6,7.42,7.42,0,0,0-3.07-2.29,12.25,12.25,0,0,0-4.71-.8H55.59V458.3Z" transform="translate(-48 -430.18)"/><path class="cls-1" d="M82.79,447.38a8,8,0,0,1,1.21-4,8.36,8.36,0,0,1,2.7-2.56,12.12,12.12,0,0,1,3.7-1.38,21.34,21.34,0,0,1,4.13-.41,27.58,27.58,0,0,1,3.82.27,11.69,11.69,0,0,1,3.53,1,6.93,6.93,0,0,1,2.61,2.15,6,6,0,0,1,1,3.65v13a25.9,25.9,0,0,0,.19,3.24,5.88,5.88,0,0,0,.68,2.32h-7a9.76,9.76,0,0,1-.31-1.18,10.11,10.11,0,0,1-.17-1.23,9,9,0,0,1-3.87,2.36,15.51,15.51,0,0,1-4.54.68,12.24,12.24,0,0,1-3.33-.44,7.5,7.5,0,0,1-2.71-1.35,6.21,6.21,0,0,1-1.81-2.32,7.73,7.73,0,0,1-.65-3.33,7.3,7.3,0,0,1,.75-3.51,6.13,6.13,0,0,1,1.93-2.19,8.79,8.79,0,0,1,2.7-1.24,30,30,0,0,1,3.07-.65c1-.16,2-.29,3-.38a19.23,19.23,0,0,0,2.65-.44,4.56,4.56,0,0,0,1.84-.84,1.89,1.89,0,0,0,.63-1.62,3.7,3.7,0,0,0-.36-1.77,2.77,2.77,0,0,0-1-1,4,4,0,0,0-1.4-.49,11.51,11.51,0,0,0-1.72-.12,5.23,5.23,0,0,0-3.19.87,3.9,3.9,0,0,0-1.35,2.9Zm15.85,5.08a3.08,3.08,0,0,1-1.09.6,9.23,9.23,0,0,1-1.4.36c-.5.1-1,.18-1.57.24s-1.1.15-1.64.25a11.4,11.4,0,0,0-1.53.38,4.66,4.66,0,0,0-1.3.65,3.09,3.09,0,0,0-.89,1,3.3,3.3,0,0,0-.34,1.6,3.13,3.13,0,0,0,.34,1.54,2.56,2.56,0,0,0,.91,1,3.63,3.63,0,0,0,1.36.51,8.25,8.25,0,0,0,1.59.15,6.07,6.07,0,0,0,3.14-.68,4.58,4.58,0,0,0,1.65-1.62,5.22,5.22,0,0,0,.65-1.91,13.14,13.14,0,0,0,.12-1.54Z" transform="translate(-48 -430.18)"/><path class="cls-1" d="M124.54,439.7v4.59h-5v12.37a3.4,3.4,0,0,0,.58,2.32,3.35,3.35,0,0,0,2.32.58c.39,0,.76,0,1.11-.05a10,10,0,0,0,1-.14v5.31a15.36,15.36,0,0,1-1.94.19c-.7,0-1.4.05-2.07.05a19.32,19.32,0,0,1-3-.22,7.07,7.07,0,0,1-2.52-.84,4.47,4.47,0,0,1-1.71-1.79,6.36,6.36,0,0,1-.63-3V444.29H108.5V439.7h4.15v-7.49h6.86v7.49Z" transform="translate(-48 -430.18)"/><path class="cls-1" d="M127.53,447.38a8,8,0,0,1,1.21-4,8.29,8.29,0,0,1,2.71-2.56,12,12,0,0,1,3.69-1.38,21.34,21.34,0,0,1,4.13-.41,27.58,27.58,0,0,1,3.82.27,11.61,11.61,0,0,1,3.53,1,6.93,6.93,0,0,1,2.61,2.15,6,6,0,0,1,1,3.65v13a25.86,25.86,0,0,0,.2,3.24,5.73,5.73,0,0,0,.67,2.32h-7a9.76,9.76,0,0,1-.31-1.18,10.11,10.11,0,0,1-.17-1.23,9,9,0,0,1-3.86,2.36,15.63,15.63,0,0,1-4.55.68,12.24,12.24,0,0,1-3.33-.44,7.58,7.58,0,0,1-2.71-1.35,6.32,6.32,0,0,1-1.81-2.32,7.88,7.88,0,0,1-.65-3.33,7.3,7.3,0,0,1,.75-3.51,6.23,6.23,0,0,1,1.93-2.19,8.74,8.74,0,0,1,2.71-1.24,29.21,29.21,0,0,1,3.06-.65c1-.16,2-.29,3-.38a19.39,19.39,0,0,0,2.66-.44,4.58,4.58,0,0,0,1.83-.84,1.89,1.89,0,0,0,.63-1.62,3.7,3.7,0,0,0-.36-1.77,2.69,2.69,0,0,0-1-1,4,4,0,0,0-1.4-.49,11.47,11.47,0,0,0-1.71-.12,5.19,5.19,0,0,0-3.19.87,3.87,3.87,0,0,0-1.36,2.9Zm15.85,5.08a3.08,3.08,0,0,1-1.09.6,9.23,9.23,0,0,1-1.4.36c-.5.1-1,.18-1.57.24s-1.09.15-1.64.25a11.26,11.26,0,0,0-1.52.38,4.58,4.58,0,0,0-1.31.65,3.09,3.09,0,0,0-.89,1,3.3,3.3,0,0,0-.34,1.6,3.13,3.13,0,0,0,.34,1.54,2.51,2.51,0,0,0,.92,1,3.52,3.52,0,0,0,1.35.51,8.32,8.32,0,0,0,1.59.15,6,6,0,0,0,3.14-.68,4.5,4.5,0,0,0,1.65-1.62,5.22,5.22,0,0,0,.65-1.91,13.14,13.14,0,0,0,.12-1.54Z" transform="translate(-48 -430.18)"/><path class="cls-1" d="M180.39,430.18l8.07,23.73h.1l7.63-23.73h10.68v34.5h-7.1V440.23h-.1l-8.45,24.45h-5.85l-8.46-24.21h-.09v24.21h-7.11v-34.5Z" transform="translate(-48 -430.18)"/><path class="cls-1" d="M212.52,447.38a8,8,0,0,1,1.21-4,8.29,8.29,0,0,1,2.71-2.56,12,12,0,0,1,3.7-1.38,21.19,21.19,0,0,1,4.13-.41,27.55,27.55,0,0,1,3.81.27,11.61,11.61,0,0,1,3.53,1,6.93,6.93,0,0,1,2.61,2.15,6,6,0,0,1,1,3.65v13a25.86,25.86,0,0,0,.2,3.24,5.9,5.9,0,0,0,.67,2.32h-6.95a9.8,9.8,0,0,1-.32-1.18,10.11,10.11,0,0,1-.17-1.23,9,9,0,0,1-3.86,2.36,15.56,15.56,0,0,1-4.54.68,12.26,12.26,0,0,1-3.34-.44,7.46,7.46,0,0,1-2.7-1.35,6.24,6.24,0,0,1-1.82-2.32,7.88,7.88,0,0,1-.65-3.33,7.3,7.3,0,0,1,.75-3.51,6.23,6.23,0,0,1,1.93-2.19,8.74,8.74,0,0,1,2.71-1.24,29.39,29.39,0,0,1,3.07-.65c1-.16,2-.29,3-.38a19.14,19.14,0,0,0,2.66-.44,4.69,4.69,0,0,0,1.84-.84,1.86,1.86,0,0,0,.62-1.62,3.7,3.7,0,0,0-.36-1.77,2.62,2.62,0,0,0-1-1,3.93,3.93,0,0,0-1.4-.49,11.47,11.47,0,0,0-1.71-.12,5.21,5.21,0,0,0-3.19.87,3.87,3.87,0,0,0-1.35,2.9Zm15.85,5.08a3.13,3.13,0,0,1-1.08.6,9.68,9.68,0,0,1-1.41.36c-.49.1-1,.18-1.57.24s-1.09.15-1.64.25a11.65,11.65,0,0,0-1.52.38,4.72,4.72,0,0,0-1.31.65,3.2,3.2,0,0,0-.89,1,3.42,3.42,0,0,0-.34,1.6,3.25,3.25,0,0,0,.34,1.54,2.58,2.58,0,0,0,.92,1,3.65,3.65,0,0,0,1.35.51,8.43,8.43,0,0,0,1.6.15,6.07,6.07,0,0,0,3.14-.68,4.47,4.47,0,0,0,1.64-1.62,5.22,5.22,0,0,0,.65-1.91,13.14,13.14,0,0,0,.12-1.54Z" transform="translate(-48 -430.18)"/><path class="cls-1" d="M247.07,439.7v4.64h.1a8.52,8.52,0,0,1,3.19-3.84,9.13,9.13,0,0,1,2.27-1.09,8.08,8.08,0,0,1,2.51-.39,5.42,5.42,0,0,1,1.5.24v6.38c-.32-.06-.71-.12-1.16-.17s-.89-.07-1.3-.07A7.29,7.29,0,0,0,251,446a5.59,5.59,0,0,0-2.11,1.72,6.79,6.79,0,0,0-1.13,2.53,13.62,13.62,0,0,0-.34,3.14v11.26h-6.86v-25Z" transform="translate(-48 -430.18)"/><path class="cls-1" d="M266.83,430.18v18.51l8.65-9h8.12l-9.42,9.18,10.48,15.8h-8.31l-6.86-11.16-2.66,2.56v8.6H260v-34.5Z" transform="translate(-48 -430.18)"/><path class="cls-1" d="M294.42,458.69a7,7,0,0,0,8,.46,4.31,4.31,0,0,0,1.83-2.2h6a11.46,11.46,0,0,1-4.44,6.43,13.1,13.1,0,0,1-7.25,1.93,14.24,14.24,0,0,1-5.32-.94,11,11,0,0,1-4-2.69,11.94,11.94,0,0,1-2.53-4.15,15.11,15.11,0,0,1-.9-5.32,14.6,14.6,0,0,1,.92-5.21,12.13,12.13,0,0,1,2.61-4.18,12.31,12.31,0,0,1,4-2.78,12.94,12.94,0,0,1,5.2-1,11.81,11.81,0,0,1,5.56,1.24,11,11,0,0,1,3.88,3.31,13.44,13.44,0,0,1,2.2,4.73,17.63,17.63,0,0,1,.49,5.56h-18Q292.88,457.19,294.42,458.69Zm7.76-13.14a4.82,4.82,0,0,0-3.74-1.36,6,6,0,0,0-2.73.56,5.07,5.07,0,0,0-1.74,1.38,4.81,4.81,0,0,0-.92,1.74,8.25,8.25,0,0,0-.32,1.64H303.9A8,8,0,0,0,302.18,445.55Z" transform="translate(-48 -430.18)"/><path class="cls-1" d="M328.54,439.7v4.59h-5v12.37a3.4,3.4,0,0,0,.58,2.32,3.35,3.35,0,0,0,2.32.58c.39,0,.76,0,1.11-.05a10,10,0,0,0,1-.14v5.31a15.36,15.36,0,0,1-1.94.19c-.7,0-1.4.05-2.07.05a19.32,19.32,0,0,1-3-.22,7.07,7.07,0,0,1-2.52-.84,4.47,4.47,0,0,1-1.71-1.79,6.36,6.36,0,0,1-.63-3V444.29H312.5V439.7h4.15v-7.49h6.86v7.49Z" transform="translate(-48 -430.18)"/><path class="cls-1" d="M338.34,439.7v3.19h.1a7.57,7.57,0,0,1,3.19-2.95,9.83,9.83,0,0,1,4.25-.92,10.29,10.29,0,0,1,8.61,4.06,12.53,12.53,0,0,1,2.07,4.28,19.08,19.08,0,0,1,.68,5.1,17.24,17.24,0,0,1-.68,4.83,12.39,12.39,0,0,1-2.05,4.11,10.22,10.22,0,0,1-3.43,2.85,10.43,10.43,0,0,1-4.81,1.06,9.72,9.72,0,0,1-4.28-.94,8.18,8.18,0,0,1-3.21-2.78h-.1v11.84h-6.86V439.7Zm8.92,19.81a5.54,5.54,0,0,0,1.84-1.76,7.57,7.57,0,0,0,1-2.54,15.29,15.29,0,0,0,.29-2.95,13.72,13.72,0,0,0-.32-2.94,7.74,7.74,0,0,0-1-2.59,5.74,5.74,0,0,0-1.86-1.84,5.24,5.24,0,0,0-2.78-.7,5.33,5.33,0,0,0-2.82.7,5.71,5.71,0,0,0-1.84,1.82,7.56,7.56,0,0,0-1,2.56,15.39,15.39,0,0,0-.29,3,13.88,13.88,0,0,0,.32,2.95,7.39,7.39,0,0,0,1,2.54,5.85,5.85,0,0,0,7.49,1.76Z" transform="translate(-48 -430.18)"/><path class="cls-1" d="M368.4,430.18v34.5h-6.86v-34.5Z" transform="translate(-48 -430.18)"/><path class="cls-1" d="M373.52,447.38a8,8,0,0,1,1.21-4,8.29,8.29,0,0,1,2.71-2.56,12,12,0,0,1,3.69-1.38,21.34,21.34,0,0,1,4.13-.41,27.58,27.58,0,0,1,3.82.27,11.69,11.69,0,0,1,3.53,1,6.93,6.93,0,0,1,2.61,2.15,6,6,0,0,1,1,3.65v13a25.86,25.86,0,0,0,.2,3.24,5.73,5.73,0,0,0,.67,2.32h-7a9.76,9.76,0,0,1-.31-1.18,10.11,10.11,0,0,1-.17-1.23,8.92,8.92,0,0,1-3.87,2.36,15.51,15.51,0,0,1-4.54.68,12.24,12.24,0,0,1-3.33-.44,7.58,7.58,0,0,1-2.71-1.35,6.32,6.32,0,0,1-1.81-2.32,7.88,7.88,0,0,1-.65-3.33,7.3,7.3,0,0,1,.75-3.51,6.23,6.23,0,0,1,1.93-2.19,8.74,8.74,0,0,1,2.71-1.24,29.21,29.21,0,0,1,3.06-.65c1-.16,2.05-.29,3.05-.38a19.39,19.39,0,0,0,2.66-.44,4.58,4.58,0,0,0,1.83-.84,1.89,1.89,0,0,0,.63-1.62,3.7,3.7,0,0,0-.36-1.77,2.69,2.69,0,0,0-1-1,4,4,0,0,0-1.4-.49,11.51,11.51,0,0,0-1.72-.12,5.18,5.18,0,0,0-3.18.87,3.87,3.87,0,0,0-1.36,2.9Zm15.85,5.08a3.08,3.08,0,0,1-1.09.6,9.23,9.23,0,0,1-1.4.36c-.5.1-1,.18-1.57.24s-1.09.15-1.64.25a10.9,10.9,0,0,0-1.52.38,4.58,4.58,0,0,0-1.31.65,3.09,3.09,0,0,0-.89,1,3.3,3.3,0,0,0-.34,1.6,3.13,3.13,0,0,0,.34,1.54,2.51,2.51,0,0,0,.92,1,3.52,3.52,0,0,0,1.35.51,8.25,8.25,0,0,0,1.59.15,6,6,0,0,0,3.14-.68,4.5,4.5,0,0,0,1.65-1.62,5.22,5.22,0,0,0,.65-1.91,13.14,13.14,0,0,0,.12-1.54Z" transform="translate(-48 -430.18)"/><path class="cls-1" d="M413.48,444.19a4.81,4.81,0,0,0-2.75.75,5.8,5.8,0,0,0-1.81,1.94,8.47,8.47,0,0,0-1,2.61,14.34,14.34,0,0,0-.28,2.82,13.9,13.9,0,0,0,.28,2.76,8.5,8.5,0,0,0,.95,2.53,5.31,5.31,0,0,0,1.76,1.86,4.79,4.79,0,0,0,2.71.73,5,5,0,0,0,3.79-1.38,6.59,6.59,0,0,0,1.67-3.7h6.62a11.31,11.31,0,0,1-3.87,7.59,12.49,12.49,0,0,1-8.17,2.61,13.63,13.63,0,0,1-5.14-.94,11.5,11.5,0,0,1-4-2.64,12,12,0,0,1-2.56-4,14,14,0,0,1-.92-5.15,16.4,16.4,0,0,1,.85-5.38,11.92,11.92,0,0,1,2.49-4.3,11.35,11.35,0,0,1,4-2.83,13.56,13.56,0,0,1,5.41-1,16,16,0,0,1,4.28.58,11.57,11.57,0,0,1,3.67,1.77,9.43,9.43,0,0,1,2.63,2.95,9.34,9.34,0,0,1,1.16,4.17h-6.72C418.1,445.63,416.41,444.19,413.48,444.19Z" transform="translate(-48 -430.18)"/><path class="cls-1" d="M436.62,458.69a7,7,0,0,0,8,.46,4.31,4.31,0,0,0,1.83-2.2h6a11.46,11.46,0,0,1-4.44,6.43,13.1,13.1,0,0,1-7.25,1.93,14.24,14.24,0,0,1-5.32-.94,11.07,11.07,0,0,1-4-2.69,11.94,11.94,0,0,1-2.53-4.15,15.11,15.11,0,0,1-.9-5.32A14.6,14.6,0,0,1,429,447a12.08,12.08,0,0,1,6.65-7,12.85,12.85,0,0,1,5.19-1,11.78,11.78,0,0,1,5.56,1.24,11.15,11.15,0,0,1,3.89,3.31,13.6,13.6,0,0,1,2.19,4.73,17.63,17.63,0,0,1,.49,5.56h-18Q435.08,457.19,436.62,458.69Zm7.76-13.14a4.82,4.82,0,0,0-3.74-1.36,6,6,0,0,0-2.73.56,5.07,5.07,0,0,0-1.74,1.38,4.81,4.81,0,0,0-.92,1.74,8.25,8.25,0,0,0-.32,1.64H446.1A8,8,0,0,0,444.38,445.55Z" transform="translate(-48 -430.18)"/></svg>