<?xml version="1.0" standalone="no"?>
<!DOCTYPE svg PUBLIC "-//W3C//DTD SVG 20010904//EN"
 "http://www.w3.org/TR/2001/REC-SVG-20010904/DTD/svg10.dtd">
<svg version="1.0" xmlns="http://www.w3.org/2000/svg"
 width="24.000000pt" height="24.000000pt" viewBox="0 0 24.000000 24.000000"
 preserveAspectRatio="xMidYMid meet">

<g transform="translate(0.000000,24.000000) scale(0.100000,-0.100000)"
fill="#000000" stroke="none">
<path d="M70 215 c0 -14 5 -25 10 -25 6 0 10 11 10 25 0 14 -4 25 -10 25 -5 0
-10 -11 -10 -25z"/>
<path d="M143 216 c-37 -32 -24 -44 16 -15 25 18 33 20 46 9 22 -18 19 -25
-22 -71 -31 -35 -41 -40 -66 -35 -20 4 -27 2 -25 -7 10 -27 56 -19 97 19 49
44 61 77 36 104 -24 26 -48 25 -82 -4z"/>
<path d="M20 212 c0 -14 39 -46 47 -39 3 4 -2 16 -12 27 -19 21 -35 26 -35 12z"/>
<path d="M0 160 c0 -5 11 -10 25 -10 14 0 25 5 25 10 0 6 -11 10 -25 10 -14 0
-25 -4 -25 -10z"/>
<path d="M72 140 c-36 -22 -72 -67 -72 -90 0 -20 30 -50 51 -50 22 0 59 29 59
46 0 11 -7 9 -30 -8 -28 -20 -32 -21 -46 -6 -12 12 -14 20 -5 36 18 35 69 71
91 65 11 -3 20 -1 20 5 0 18 -38 20 -68 2z"/>
<path d="M190 80 c0 -5 11 -10 25 -10 14 0 25 5 25 10 0 6 -11 10 -25 10 -14
0 -25 -4 -25 -10z"/>
<path d="M170 62 c0 -14 39 -46 47 -39 3 4 -2 16 -12 27 -19 21 -35 26 -35 12z"/>
<path d="M150 25 c0 -14 5 -25 10 -25 6 0 10 11 10 25 0 14 -4 25 -10 25 -5 0
-10 -11 -10 -25z"/>
</g>
</svg>
