<?xml version="1.0" standalone="no"?>
<!DOCTYPE svg PUBLIC "-//W3C//DTD SVG 20010904//EN"
 "http://www.w3.org/TR/2001/REC-SVG-20010904/DTD/svg10.dtd">
<svg version="1.0" xmlns="http://www.w3.org/2000/svg"
 width="64.000000pt" height="64.000000pt" viewBox="0 0 64.000000 64.000000"
 preserveAspectRatio="xMidYMid meet">

<g transform="translate(0.000000,64.000000) scale(0.100000,-0.100000)"
fill="#000000" stroke="none">
<path d="M176 601 c-4 -6 -4 -20 -1 -32 5 -15 -4 -32 -38 -68 -123 -131 -90
-332 67 -413 47 -24 128 -34 176 -20 31 8 37 6 57 -17 18 -22 22 -24 28 -9 6
16 -241 528 -269 556 -10 10 -16 11 -20 3z m36 -137 c-9 -90 -6 -123 11 -142
17 -19 16 -20 -20 -58 -21 -22 -43 -48 -50 -59 -10 -18 -13 -16 -32 25 -38 82
-18 186 45 245 34 31 50 27 46 -11z m63 -94 c20 -39 22 -50 11 -50 -21 0 -46
39 -46 72 0 16 2 28 5 28 2 0 16 -22 30 -50z m88 -176 c21 -42 36 -79 33 -82
-3 -3 -28 -7 -56 -10 -53 -5 -128 17 -150 43 -28 34 52 124 110 125 22 0 31
-11 63 -76z"/>
<path d="M256 567 c-27 -20 -9 -28 67 -31 70 -3 108 -19 155 -67 64 -65 79
-169 36 -251 -16 -30 -18 -31 -28 -14 -18 31 -67 86 -77 86 -24 0 -19 -32 10
-60 16 -17 33 -46 37 -65 9 -51 23 -53 60 -11 109 126 69 321 -81 398 -51 27
-153 35 -179 15z"/>
<path d="M288 504 c-19 -19 -7 -34 27 -34 71 0 109 -77 66 -132 -13 -16 -17
-29 -11 -39 8 -11 14 -9 37 14 23 23 28 36 28 77 0 42 -5 54 -31 81 -31 30
-100 50 -116 33z"/>
</g>
</svg>
