<svg width="30" height="30" viewBox="0 0 30 30" fill="none" xmlns="http://www.w3.org/2000/svg">
<line x1="14.5852" y1="5.71786" x2="14.5852" y2="16.3845" stroke="#008000" stroke-width="1.74"/>
<path d="M20.7155 11.718L14.7155 15.718" stroke="#008000" stroke-width="1.74"/>
<circle cx="21.7155" cy="21.7179" r="6.11" stroke="#008000" stroke-width="1.78"/>
<path d="M27 19C29 13 27.1174 9.53907 25.4806 7.30868C23.8438 5.07829 21.5382 3.42823 18.899 2.59848C16.2598 1.76873 13.4248 1.80256 10.8062 2.69506C8.18753 3.58755 5.92192 5.29216 4.33881 7.56098C2.75571 9.82979 1.93768 12.5445 2.0037 15.3102C2.06972 18.076 3.01635 20.7485 4.7059 22.9392C6.39546 25.1299 8.73983 26.7245 11.3981 27.491C14.0563 28.2576 16.8897 28.1561 19.4863 27.2014" stroke="#008000" stroke-width="2.5"/>
<path d="M24 18.0003L21.3146 25.3058" stroke="#008000" stroke-width="1.74"/>
<path d="M20 21.5003L21.344 24.7893" stroke="#008000" stroke-width="1.74"/>
</svg>
