<?xml version="1.0" standalone="no"?>
<!DOCTYPE svg PUBLIC "-//W3C//DTD SVG 20010904//EN"
 "http://www.w3.org/TR/2001/REC-SVG-20010904/DTD/svg10.dtd">
<svg version="1.0" xmlns="http://www.w3.org/2000/svg"
 width="512.000000pt" height="512.000000pt" viewBox="0 0 512.000000 512.000000"
 preserveAspectRatio="xMidYMid meet">

<g transform="translate(0.000000,512.000000) scale(0.100000,-0.100000)"
fill="#000000" stroke="none">
<path d="M2400 5114 c-193 -18 -407 -62 -585 -121 -605 -200 -1133 -655 -1407
-1214 -35 -70 -66 -128 -69 -128 -4 -1 -14 20 -24 47 -41 110 -87 152 -166
152 -86 0 -154 -73 -146 -155 6 -57 200 -512 234 -547 53 -56 108 -56 238 0
39 16 142 60 230 96 176 74 218 105 231 171 9 52 -21 122 -65 152 -45 31 -106
30 -181 -2 -33 -14 -62 -25 -65 -25 -12 0 112 227 178 327 301 452 794 788
1322 902 958 208 1933 -252 2376 -1121 65 -129 127 -285 154 -389 31 -121 80
-166 172 -157 83 8 133 61 133 140 0 87 -86 331 -186 532 -183 363 -456 678
-789 908 -305 211 -661 353 -1030 409 -125 19 -448 33 -555 23z"/>
<path d="M2416 4189 c-150 -51 -255 -169 -294 -330 -18 -71 -18 -72 -65 -90
l-48 -19 -52 35 c-169 115 -410 94 -557 -48 -160 -154 -186 -399 -61 -580 l31
-46 -19 -47 c-18 -48 -18 -48 -90 -66 -215 -53 -351 -222 -351 -438 0 -216
136 -385 351 -438 72 -18 72 -18 90 -66 l19 -47 -31 -46 c-47 -68 -71 -138
-76 -229 -24 -369 395 -606 700 -395 l46 31 47 -19 c48 -18 48 -19 65 -89 21
-82 38 -119 87 -184 134 -177 416 -223 599 -97 101 70 161 158 191 280 18 72
18 72 66 90 l47 19 46 -31 c176 -122 420 -99 571 53 152 152 174 395 53 571
l-31 46 19 47 c18 48 18 48 90 66 215 53 351 222 351 438 0 216 -136 385 -351
438 -72 18 -72 18 -90 66 l-19 47 31 46 c57 82 73 137 73 248 1 72 -4 114 -17
153 -95 272 -426 387 -667 231 l-60 -39 -47 19 c-47 18 -47 19 -65 90 -40 162
-145 279 -296 330 -82 28 -205 28 -286 0z m240 -310 c39 -36 54 -80 54 -159 0
-79 22 -136 62 -162 13 -8 50 -23 83 -32 33 -10 101 -37 151 -61 138 -66 171
-65 251 9 32 29 72 61 90 70 125 64 261 -72 197 -197 -9 -18 -41 -58 -70 -90
-74 -80 -75 -115 -9 -252 24 -49 50 -113 58 -141 36 -122 77 -154 199 -154
122 0 188 -53 188 -150 0 -97 -66 -150 -188 -150 -122 0 -163 -32 -199 -154
-8 -28 -34 -91 -58 -141 -66 -137 -65 -172 9 -252 29 -32 61 -72 70 -90 64
-125 -72 -261 -197 -197 -18 9 -58 41 -90 70 -79 73 -112 75 -240 14 -45 -21
-113 -49 -152 -61 -38 -13 -80 -29 -93 -37 -40 -26 -62 -83 -62 -164 0 -122
-53 -188 -150 -188 -97 0 -150 66 -150 188 0 81 -22 138 -62 164 -13 8 -54 24
-93 37 -38 12 -107 40 -152 61 -128 61 -161 59 -240 -14 -32 -29 -72 -61 -90
-70 -125 -64 -261 72 -197 197 9 18 41 58 70 90 74 80 75 115 9 252 -24 50
-50 113 -58 141 -36 122 -77 154 -199 154 -122 0 -188 53 -188 150 0 96 66
150 184 150 122 0 168 35 203 154 8 28 34 92 58 141 66 137 65 172 -9 252 -29
32 -61 72 -70 90 -64 125 72 261 197 197 18 -9 58 -41 90 -70 79 -74 112 -75
251 -9 50 23 114 50 142 58 122 36 154 77 154 199 0 87 19 132 70 166 48 32
137 28 176 -9z"/>
<path d="M2455 2996 c-226 -56 -376 -281 -337 -507 42 -245 274 -412 513 -371
245 42 412 273 371 513 -44 259 -297 427 -547 365z m175 -307 c44 -25 80 -83
80 -129 0 -73 -77 -150 -150 -150 -73 0 -150 77 -150 150 0 73 76 149 149 150
18 0 50 -10 71 -21z"/>
<path d="M4740 2040 c-14 -4 -128 -51 -255 -104 -253 -107 -287 -130 -299
-203 -9 -52 16 -116 56 -145 50 -35 112 -35 197 1 86 36 85 40 14 -103 -152
-303 -390 -582 -665 -779 -716 -512 -1650 -542 -2402 -75 -255 158 -527 432
-685 691 -96 158 -197 388 -236 538 -30 117 -73 159 -161 159 -84 0 -144 -59
-144 -142 0 -124 149 -493 292 -721 307 -490 761 -848 1313 -1032 259 -86 477
-120 775 -119 230 0 351 13 550 60 706 165 1305 638 1630 1287 l69 139 16 -39
c46 -115 76 -144 157 -151 44 -3 59 0 88 20 47 31 72 82 67 133 -5 51 -199
510 -229 542 -13 14 -30 28 -38 33 -26 13 -84 19 -110 10z"/>
</g>
</svg>
