<?xml version="1.0" standalone="no"?>
<!DOCTYPE svg PUBLIC "-//W3C//DTD SVG 20010904//EN"
 "http://www.w3.org/TR/2001/REC-SVG-20010904/DTD/svg10.dtd">
<svg version="1.0" xmlns="http://www.w3.org/2000/svg"
 width="438.000000pt" height="414.000000pt" viewBox="0 0 438.000000 414.000000"
 preserveAspectRatio="xMidYMid meet">

<g transform="translate(0.000000,414.000000) scale(0.100000,-0.100000)"
fill="#000000" stroke="none">
<path d="M2045 3930 c-55 -7 -123 -20 -265 -50 -30 -7 -59 -15 -65 -20 -5 -4
-26 -11 -45 -15 -19 -4 -39 -11 -45 -15 -5 -4 -21 -11 -35 -15 -14 -4 -63 -25
-110 -47 -313 -146 -555 -357 -778 -680 -17 -25 -32 -51 -32 -56 0 -6 -6 -17
-13 -24 -6 -7 -28 -46 -47 -85 -19 -40 -38 -73 -42 -73 -4 0 -20 26 -36 57
-23 46 -37 61 -66 72 -53 20 -107 2 -135 -45 -29 -49 -27 -67 19 -169 5 -11
18 -42 30 -70 12 -27 25 -59 30 -70 5 -11 18 -42 30 -70 35 -84 41 -93 75
-110 24 -14 43 -16 78 -11 26 4 47 11 47 17 0 5 7 9 15 9 8 0 36 10 62 21 27
12 57 26 68 30 32 13 117 49 152 65 36 16 71 56 79 91 8 30 -20 89 -53 110
-32 21 -88 21 -128 -1 -37 -20 -45 -20 -45 -2 0 17 32 80 43 84 4 2 7 8 7 14
0 10 68 128 79 138 4 3 18 23 33 45 79 116 259 289 391 378 83 56 290 167 312
167 5 0 22 6 37 14 15 8 41 17 59 21 19 4 40 11 49 16 19 11 98 28 180 40 36
5 93 14 126 19 78 13 222 13 293 0 31 -5 85 -14 121 -19 114 -17 226 -46 297
-77 17 -8 38 -14 47 -14 9 0 16 -4 16 -10 0 -5 6 -10 13 -10 36 0 267 -135
367 -215 33 -26 230 -223 255 -255 42 -52 125 -177 125 -187 0 -6 3 -13 8 -15
16 -7 99 -191 137 -305 51 -152 67 -173 136 -173 43 0 55 4 81 31 30 29 31 32
25 100 -3 39 -10 76 -15 82 -5 7 -13 27 -17 45 -4 18 -13 45 -21 60 -8 15 -14
30 -14 34 0 4 -13 36 -30 71 -16 36 -30 70 -30 76 0 6 -4 11 -10 11 -5 0 -10
5 -10 11 0 11 -97 178 -109 189 -3 3 -17 21 -31 40 -183 262 -483 499 -785
621 -11 4 -36 14 -55 22 -31 13 -73 26 -220 68 -135 38 -488 60 -635 39z"/>
<path d="M2088 3339 c-32 -4 -67 -13 -77 -19 -11 -5 -28 -10 -38 -10 -9 0 -51
-17 -93 -37 -176 -87 -282 -262 -252 -413 19 -90 64 -285 70 -300 3 -8 11 -42
18 -75 15 -71 36 -164 59 -255 9 -36 23 -92 30 -125 52 -224 98 -410 108 -438
32 -88 118 -149 238 -168 183 -28 344 57 379 201 6 25 18 74 27 110 8 36 21
91 29 123 35 142 104 433 134 562 15 66 40 172 55 235 37 152 38 245 3 320
-29 64 -102 149 -156 181 -20 13 -40 27 -43 31 -3 5 -43 22 -89 38 -131 46
-265 59 -402 39z"/>
<path d="M3825 1616 c-16 -8 -52 -24 -80 -36 -27 -12 -59 -25 -70 -30 -11 -5
-55 -23 -97 -40 -93 -38 -128 -73 -128 -131 0 -32 7 -46 36 -74 43 -42 79 -45
149 -14 25 11 49 18 52 15 5 -5 -7 -37 -45 -116 -9 -19 -20 -39 -24 -45 -4 -5
-37 -54 -72 -108 -36 -53 -71 -103 -78 -111 -7 -7 -37 -41 -67 -76 -44 -50
-146 -141 -256 -229 -31 -24 -218 -131 -230 -131 -7 0 -16 -4 -19 -8 -3 -5
-38 -21 -78 -36 -40 -16 -82 -32 -93 -37 -11 -4 -38 -13 -60 -19 -249 -69
-547 -79 -800 -26 -207 43 -489 175 -644 301 -104 84 -202 182 -286 286 -70
86 -215 341 -215 379 0 9 -4 20 -9 25 -10 12 -51 129 -51 149 0 25 -31 76 -60
96 -48 34 -113 19 -155 -36 -24 -32 -14 -114 25 -209 5 -11 19 -50 32 -87 12
-38 26 -68 30 -68 5 0 8 -7 8 -15 0 -14 69 -154 81 -165 3 -3 9 -12 13 -20 13
-29 64 -108 81 -126 5 -6 17 -22 25 -34 61 -93 275 -308 370 -370 12 -8 28
-19 34 -25 27 -24 76 -55 86 -55 5 0 10 -4 10 -9 0 -5 10 -13 23 -17 12 -4 24
-10 27 -13 9 -12 148 -81 163 -81 8 0 17 -3 19 -7 4 -10 75 -43 91 -43 7 0 24
-6 38 -14 14 -7 43 -16 65 -20 21 -5 44 -11 49 -16 11 -8 93 -26 195 -41 36
-5 94 -14 130 -20 109 -18 481 3 545 31 11 5 40 12 65 16 25 3 50 10 55 14 6
4 27 11 49 14 21 4 52 13 70 21 17 7 47 20 68 29 20 9 39 16 42 16 4 0 42 17
84 38 226 110 439 277 602 471 61 73 170 231 170 248 0 7 4 13 8 13 5 0 30 43
56 96 43 88 48 95 60 78 7 -10 17 -30 21 -43 22 -71 124 -97 180 -45 19 18 29
38 32 68 5 40 1 52 -47 161 -5 11 -18 43 -30 70 -12 28 -25 59 -30 70 -5 11
-19 42 -31 69 -11 27 -28 56 -36 65 -21 21 -111 25 -148 7z"/>
<path d="M2125 1304 c-144 -23 -283 -111 -336 -214 -32 -61 -31 -155 1 -228
109 -250 598 -296 800 -75 160 175 68 410 -193 494 -61 20 -211 32 -272 23z"/>
<path d="M470 105 c0 -8 7 -15 15 -15 8 0 15 7 15 15 0 8 -7 15 -15 15 -8 0
-15 -7 -15 -15z"/>
</g>
</svg>
