<svg width="30" height="30" viewBox="0 0 30 30" fill="none" xmlns="http://www.w3.org/2000/svg">
<line x1="14.8698" y1="5.99991" x2="14.8698" y2="16.6666" stroke="#FF304C" stroke-width="1.74"/>
<path d="M21 12L15 16" stroke="#FF304C" stroke-width="1.74"/>
<circle cx="22" cy="21.9999" r="6.11" stroke="#FF304C" stroke-width="1.78"/>
<path d="M21 19L21.5 23H22.5H23L23.5 19H21Z" fill="#FF304C" stroke="#FF304C"/>
<path d="M22.2 26H22.1163C21.7589 26 21.452 25.7456 21.3857 25.3943C21.3203 25.0481 21.5069 24.7036 21.8325 24.5692L21.8576 24.5588C21.9516 24.52 22.0524 24.5 22.1541 24.5H22.3C22.6866 24.5 23 24.8134 23 25.2C23 25.6418 22.6418 26 22.2 26Z" fill="#FF304C" stroke="#FF304C"/>
<path d="M27 19C29 13 27.1174 9.53907 25.4806 7.30868C23.8438 5.07829 21.5382 3.42823 18.899 2.59848C16.2598 1.76873 13.4248 1.80256 10.8062 2.69506C8.18753 3.58755 5.92192 5.29216 4.33881 7.56098C2.75571 9.82979 1.93768 12.5445 2.0037 15.3102C2.06972 18.076 3.01635 20.7485 4.7059 22.9392C6.39546 25.1299 8.73983 26.7245 11.3981 27.491C14.0563 28.2576 16.8897 28.1561 19.4863 27.2014" stroke="#FF304C" stroke-width="2.5"/>
</svg>
